<svg xmlns="http://www.w3.org/2000/svg" version="1.1" xmlns:xlink="http://www.w3.org/1999/xlink" width="24" height="24"><svg xmlns="http://www.w3.org/2000/svg" width="24" height="24" viewBox="0 0 24 24" fill="currentColor" class="icon icon-tabler icons-tabler-filled icon-tabler-fence"><path stroke="none" d="M0 0h24v24H0z" fill="none"></path><path d="M19 17v3a1 1 0 0 1 -1 1h-4a1 1 0 0 1 -1 -1v-3z"></path><path d="M11 17v3a1 1 0 0 1 -1 1h-4a1 1 0 0 1 -1 -1v-3z"></path><path d="M20 12a1 1 0 0 1 1 1v2a1 1 0 0 1 -1 1h-16a1 1 0 0 1 -1 -1v-2a1 1 0 0 1 1 -1z"></path><path d="M8.707 3.293l2 2a1 1 0 0 1 .293 .707v5h-6v-5a1 1 0 0 1 .293 -.707l2 -2a1 1 0 0 1 1.414 0"></path><path d="M16.707 3.293l2 2a1 1 0 0 1 .293 .707v5h-6v-5a1 1 0 0 1 .293 -.707l2 -2a1 1 0 0 1 1.414 0"></path></svg><style>@media (prefers-color-scheme: light) { :root { filter: none; } }
@media (prefers-color-scheme: dark) { :root { filter: contrast(0.3846153846153846) brightness(4.5); } }
</style></svg>